# xmcd
#
# Track frame offsets: 
#        150
#        9834
#        31560
#        48158
#        67004
#        88957
#        104226
#        123793
#        142406
#
# Disc length: 2209 seconds
#
# Revision: 0
# Processed by: cddbd v1.5.2PL0 Copyright (c) Steve Scherf et al.
# Submitted via: ExactAudioCopyFreeDBPlugin 1.0
#
DISCID=78089f09
DTITLE=LUSRICA - Lights in the Empire
DYEAR=2010
DGENRE=Blues
TTITLE0=Breeze Introduction
TTITLE1=Lights in the Empire
TTITLE2=Rewind Time
TTITLE3=Felicidade para voce
TTITLE4=Waiting at Airport
TTITLE5=Terra de Liberdade
TTITLE6=Us Against the World
TTITLE7=Things You Leave Behind
TTITLE8=Speak for Yourself
EXTD=
EXTT0=
EXTT1=
EXTT2=
EXTT3=
EXTT4=
EXTT5=
EXTT6=
EXTT7=
EXTT8=
PLAYORDER=
